<svg xmlns="http://www.w3.org/2000/svg" width="512" height="512" viewBox="0 0 512 512" version="1.1">
	<path d="M 226.500 16.646 C 171.209 22.664, 122.283 45.815, 84.049 84.049 C 49.381 118.716, 27.396 161.461, 18.753 211 C 16.911 221.556, 16.572 227.310, 16.572 248 C 16.572 275.604, 17.982 286.765, 24.434 310.230 C 46.049 388.841, 110.074 451.880, 189.157 472.419 C 211.887 478.322, 221.603 479.490, 248 479.490 C 274.431 479.490, 284.108 478.324, 306.973 472.385 C 385.984 451.862, 449.950 388.844, 471.566 310.230 C 478.018 286.765, 479.428 275.604, 479.428 248 C 479.428 220.396, 478.018 209.235, 471.566 185.770 C 450.257 108.272, 387.652 45.733, 310 24.374 C 288.904 18.572, 276.210 16.851, 252 16.512 C 240.175 16.346, 228.700 16.407, 226.500 16.646 M 225 33.100 C 159.703 40.417, 102.395 75.846, 66.221 131.259 C 44.242 164.927, 32 206.690, 32 248 C 32 321.502, 68.893 389.066, 131.259 429.779 C 194.300 470.933, 277.464 475.225, 345.219 440.823 C 367.044 429.742, 382.978 418.151, 400.564 400.564 C 441.724 359.405, 464 305.830, 464 248 C 464 190.137, 441.747 136.618, 400.564 95.436 C 358.996 53.867, 304.795 31.596, 246.500 32.131 C 238.800 32.202, 229.125 32.638, 225 33.100 M 230.908 65.045 C 196.023 68.154, 159.278 83.292, 131.512 105.993 C 121.683 114.030, 106.515 130.086, 99.326 140.066 C 82.618 163.260, 72.043 188.274, 66.802 217 C 63.820 233.340, 63.820 262.660, 66.802 279 C 73.355 314.916, 89.189 347.027, 112.639 371.955 C 119.064 378.784, 120.695 380, 123.430 380 C 127.593 380, 131 376.485, 131 372.190 C 131 369.658, 129.639 367.527, 124.332 361.754 C 84.757 318.703, 70.591 259.357, 86.199 202 C 98.392 157.191, 132.038 117.408, 175.425 96.501 C 202.717 83.349, 235.285 77.746, 265.850 80.943 C 279.260 82.346, 280.950 81.949, 283.041 76.901 C 284.151 74.221, 284.128 73.318, 282.892 71.113 C 280.738 67.270, 277.758 66.264, 265 65.077 C 252.322 63.897, 243.872 63.889, 230.908 65.045 M 305.763 76.542 C 300.802 79.276, 300.951 87.116, 306.013 89.715 C 307.381 90.418, 312.620 92.799, 317.656 95.007 C 327.651 99.389, 330.232 99.362, 333.399 94.841 C 337.434 89.080, 334.604 85.294, 322.317 80.016 C 310.703 75.027, 309.115 74.694, 305.763 76.542 M 196.873 102.684 C 193.636 104.692, 191.397 108.359, 190.507 113.109 L 189.830 116.719 180.064 117.257 C 169.862 117.819, 166.135 119.059, 162.298 123.169 C 157.540 128.265, 157.001 131.468, 156.990 154.718 C 156.974 192.886, 151.379 229.231, 138.833 272.673 C 137.865 276.025, 137.885 277.157, 138.936 278.423 C 142.232 282.395, 144.977 279.215, 148.364 267.500 C 155.230 243.752, 160.758 214.815, 163.265 189.500 L 164.553 176.500 234.772 176.243 C 303.687 175.991, 305.015 175.949, 306.236 173.993 C 307.942 171.261, 313.537 171.266, 315 174 C 315.960 175.795, 317.094 176, 326.035 176 C 331.516 176, 335.996 176.338, 335.990 176.750 C 335.985 177.162, 335.303 183.565, 334.475 190.978 C 329.679 233.910, 319.820 272.549, 306.969 298.772 C 300.216 312.552, 296.110 317.729, 289.221 321.154 L 284.500 323.500 207.239 323.780 C 130.076 324.059, 126.023 323.906, 125.986 320.715 C 125.978 320.047, 129.241 313.107, 133.236 305.294 C 139.194 293.642, 140.301 290.766, 139.391 289.294 C 138.781 288.307, 137.220 287.500, 135.921 287.500 C 133.935 287.500, 132.757 289.087, 128.498 297.500 C 125.714 303, 122.212 309.705, 120.718 312.399 C 117.624 317.976, 117.351 320.845, 119.517 325.033 C 122.177 330.176, 125.255 331, 141.823 331 L 156.744 331 157.399 335.092 C 158.889 344.413, 165.390 351.831, 174.432 354.529 C 182.011 356.790, 319.235 356.713, 326.878 354.444 C 333.496 352.478, 339.136 347.435, 341.899 341.014 L 344.036 336.045 343.768 232.615 L 343.500 129.185 340.394 125.343 C 335.424 119.195, 332.286 117.882, 321.080 117.265 L 311.170 116.719 310.493 113.109 C 309.064 105.485, 304.252 101, 297.500 101 C 290.700 101, 285.937 105.482, 284.480 113.250 L 283.777 117 250.500 117 L 217.223 117 216.520 113.250 C 215.049 105.405, 210.278 100.979, 203.346 101.027 C 201.231 101.041, 198.318 101.787, 196.873 102.684 M 351 104 C 349.813 105.187, 349.004 107.322, 349.011 109.250 C 349.020 112.102, 350.498 113.895, 361.083 123.893 C 387.852 149.178, 402.727 174.010, 410.875 207.015 C 414.673 222.399, 416 233.013, 416 248 C 416 290.613, 400.407 330.575, 371.479 362.098 C 364.119 370.118, 363.121 373.886, 367.314 377.826 C 371.802 382.041, 374.958 380.886, 383.361 371.955 C 406.811 347.027, 422.645 314.916, 429.198 279 C 432.180 262.660, 432.180 233.340, 429.198 217 C 421.272 173.557, 400.168 136.683, 366.724 107.843 C 359.137 101.300, 354.768 100.232, 351 104 M 186.113 231.909 C 185.351 232.392, 184.511 235.033, 184.247 237.777 C 183.848 241.932, 184.126 243.126, 185.907 244.907 C 187.617 246.617, 188.442 246.834, 190.023 245.988 C 191.641 245.122, 192 243.884, 192 239.165 C 192 231.998, 189.954 229.476, 186.113 231.909 M 271.200 232.200 C 270.540 232.860, 270 235.994, 270 239.165 C 270 245.468, 271.831 247.793, 275.276 245.866 C 277.679 244.521, 277.799 232.520, 275.418 231.607 C 273.186 230.750, 272.562 230.838, 271.200 232.200 M 333.205 245.630 C 330.122 259.730, 324.083 279.571, 319.079 292.043 C 310.695 312.942, 301.479 324.806, 290.414 328.946 C 285.101 330.934, 283.001 331, 224.832 331 L 164.738 331 165.343 334.727 C 166.023 338.919, 168.308 342.394, 172.385 345.438 C 175.117 347.478, 175.955 347.500, 250.401 347.500 L 325.656 347.500 329.434 344.618 C 336.169 339.481, 336.048 340.624, 335.759 285.078 L 335.500 235.137 333.205 245.630 M 218.200 239.200 C 214.658 242.742, 218.635 247.747, 226.722 249.925 C 231.676 251.259, 234.943 250.651, 240.809 247.305 C 244.364 245.277, 245.064 244.396, 244.809 242.274 C 244.299 238.026, 241.952 237.414, 237.570 240.388 C 232.774 243.642, 229.614 243.676, 224.500 240.526 C 219.824 237.646, 219.766 237.634, 218.200 239.200 M 165.117 381.750 C 161.903 384.990, 154 398.993, 154 401.450 C 154 403.809, 159.409 409, 161.867 409 C 162.979 409, 165.035 407.988, 166.437 406.750 C 169.501 404.045, 178 389.305, 178 386.697 C 178 384.159, 172.638 379, 170 379 C 168.815 379, 166.618 380.238, 165.117 381.750 M 320.923 381.923 C 319.315 383.531, 318 385.679, 318 386.697 C 318 389.305, 326.499 404.045, 329.563 406.750 C 330.965 407.988, 333.021 409, 334.133 409 C 336.591 409, 342 403.809, 342 401.450 C 342 398.993, 334.097 384.990, 330.883 381.750 C 327.382 378.222, 324.575 378.271, 320.923 381.923 M 202.621 397.288 C 200.273 399.636, 196 413.236, 196 418.364 C 196 421.623, 200.024 426, 203.020 426 C 208.269 426, 210.364 423.209, 213.142 412.518 C 215.714 402.619, 215.562 399.587, 212.365 397.073 C 208.928 394.369, 205.464 394.445, 202.621 397.288 M 283.635 397.073 C 281.765 398.543, 281.005 400.068, 281.017 402.323 C 281.037 406.050, 284.159 418.559, 285.863 421.745 C 288.394 426.473, 293.787 427.304, 297.545 423.545 C 300.572 420.519, 300.619 417.929, 297.833 407.606 C 294.627 395.725, 289.852 392.182, 283.635 397.073 M 242.923 402.923 C 240.076 405.770, 240 406.111, 240 416 C 240 425.889, 240.076 426.230, 242.923 429.077 C 244.531 430.685, 246.815 432, 248 432 C 249.185 432, 251.469 430.685, 253.077 429.077 C 255.924 426.230, 256 425.889, 256 416 C 256 406.111, 255.924 405.770, 253.077 402.923 C 251.469 401.315, 249.185 400, 248 400 C 246.815 400, 244.531 401.315, 242.923 402.923" stroke="none" fill="black" fill-rule="evenodd"/>
</svg>